# Blender 4.2.1 LTS
# www.blender.org
mtllib RingCheckpoint.mtl
o Torus
v 6.920000 0.000000 0.000000
v 6.747254 0.000249 0.237764
v 6.467745 0.000154 0.146946
v 6.467745 -0.000154 -0.146946
v 6.747254 -0.000249 -0.237764
v 6.581311 2.138396 -0.002239
v 6.417020 2.085263 0.235581
v 6.151191 1.998795 0.144854
v 6.151191 1.998487 -0.149039
v 6.417020 2.084765 -0.239947
v 5.598397 4.067472 -0.004259
v 5.458643 3.966183 0.233612
v 5.232516 3.801797 0.142966
v 5.232516 3.801489 -0.150926
v 5.458643 3.965685 -0.241916
v 4.067473 5.598395 -0.005861
v 3.965935 5.458889 0.232049
v 3.801645 5.232667 0.141468
v 3.801645 5.232359 -0.152425
v 3.965935 5.458392 -0.243479
v 2.138399 6.581307 -0.006890
v 2.085017 6.417265 0.231046
v 1.998644 6.151342 0.140506
v 1.998644 6.151034 -0.153386
v 2.085017 6.416767 -0.244482
v 0.000001 6.919996 -0.007245
v 0.000001 6.747499 0.230700
v 0.000000 6.467896 0.140175
v 0.000000 6.467588 -0.153718
v 0.000001 6.747001 -0.244828
v -2.138398 6.581307 -0.006890
v -2.085016 6.417265 0.231046
v -1.998644 6.151342 0.140506
v -1.998644 6.151034 -0.153386
v -2.085016 6.416767 -0.244482
v -4.067475 5.598393 -0.005861
v -3.965937 5.458889 0.232049
v -3.801646 5.232666 0.141468
v -3.801646 5.232358 -0.152425
v -3.965937 5.458391 -0.243479
v -5.598399 4.067470 -0.004259
v -5.458644 3.966182 0.233612
v -5.232517 3.801795 0.142966
v -5.232517 3.801488 -0.150926
v -5.458644 3.965684 -0.241916
v -6.581310 2.138397 -0.002239
v -6.417019 2.085264 0.235581
v -6.151191 1.998796 0.144854
v -6.151191 1.998489 -0.149039
v -6.417019 2.084766 -0.239947
v -6.920000 0.000001 -0.000000
v -6.747254 0.000250 0.237764
v -6.467745 0.000154 0.146946
v -6.467745 -0.000153 -0.146946
v -6.747254 -0.000248 -0.237764
v -6.581312 -2.138393 0.002239
v -6.417021 -2.084763 0.239947
v -6.151192 -1.998486 0.149039
v -6.151192 -1.998793 -0.144854
v -6.417021 -2.085261 -0.235581
v -5.598399 -4.067470 0.004259
v -5.458644 -3.965684 0.241916
v -5.232517 -3.801488 0.150926
v -5.232517 -3.801795 -0.142966
v -5.458644 -3.966182 -0.233612
v -4.067475 -5.598393 0.005861
v -3.965937 -5.458391 0.243479
v -3.801646 -5.232358 0.152425
v -3.801646 -5.232666 -0.141468
v -3.965937 -5.458889 -0.232049
v -2.138398 -6.581307 0.006890
v -2.085016 -6.416767 0.244482
v -1.998644 -6.151034 0.153386
v -1.998644 -6.151342 -0.140506
v -2.085016 -6.417265 -0.231046
v 0.000001 -6.919996 0.007245
v 0.000001 -6.747001 0.244828
v 0.000000 -6.467588 0.153718
v 0.000000 -6.467896 -0.140175
v 0.000001 -6.747499 -0.230700
v 2.138399 -6.581307 0.006890
v 2.085017 -6.416767 0.244482
v 1.998644 -6.151034 0.153386
v 1.998644 -6.151342 -0.140506
v 2.085017 -6.417265 -0.231046
v 4.067471 -5.598397 0.005861
v 3.965933 -5.458394 0.243479
v 3.801642 -5.232361 0.152425
v 3.801642 -5.232669 -0.141468
v 3.965933 -5.458891 -0.232049
v 5.598395 -4.067474 0.004259
v 5.458641 -3.965688 0.241916
v 5.232514 -3.801492 0.150926
v 5.232514 -3.801800 -0.142966
v 5.458641 -3.966186 -0.233612
v 6.581310 -2.138399 0.002239
v 6.417019 -2.084768 0.239947
v 6.151191 -1.998490 0.149039
v 6.151191 -1.998798 -0.144854
v 6.417019 -2.085266 -0.235581
vn 0.8025 0.1277 0.5829
vn -0.3086 -0.0479 0.9500
vn -0.9877 -0.1564 0.0002
vn -0.3086 -0.0499 -0.9499
vn 0.8025 0.1265 -0.5832
vn 0.7239 0.3695 0.5826
vn -0.2784 -0.1409 0.9501
vn -0.8910 -0.4540 0.0005
vn -0.2784 -0.1429 -0.9498
vn 0.7239 0.3682 -0.5834
vn 0.5745 0.5751 0.5824
vn -0.2210 -0.2200 0.9502
vn -0.7071 -0.7071 0.0007
vn -0.2210 -0.2220 -0.9497
vn 0.5745 0.5739 -0.5836
vn 0.3688 0.7245 0.5823
vn -0.1419 -0.2774 0.9502
vn -0.4540 -0.8910 0.0009
vn -0.1419 -0.2794 -0.9496
vn 0.3688 0.7233 -0.5838
vn 0.1271 0.8031 0.5822
vn -0.0489 -0.3077 0.9502
vn -0.1564 -0.9877 0.0010
vn -0.0489 -0.3096 -0.9496
vn 0.1271 0.8018 -0.5839
vn -0.1271 0.8031 0.5822
vn 0.0489 -0.3077 0.9502
vn 0.1564 -0.9877 0.0010
vn 0.0489 -0.3096 -0.9496
vn -0.1271 0.8018 -0.5839
vn -0.3688 0.7245 0.5823
vn 0.1419 -0.2774 0.9502
vn 0.4540 -0.8910 0.0009
vn 0.1419 -0.2794 -0.9496
vn -0.3688 0.7233 -0.5838
vn -0.5745 0.5751 0.5824
vn 0.2210 -0.2200 0.9502
vn 0.7071 -0.7071 0.0007
vn 0.2210 -0.2220 -0.9497
vn -0.5745 0.5739 -0.5836
vn -0.7239 0.3695 0.5826
vn 0.2784 -0.1409 0.9501
vn 0.8910 -0.4540 0.0005
vn 0.2784 -0.1429 -0.9498
vn -0.7239 0.3682 -0.5834
vn -0.8025 0.1277 0.5829
vn 0.3086 -0.0479 0.9500
vn 0.9877 -0.1564 0.0002
vn 0.3086 -0.0499 -0.9499
vn -0.8025 0.1265 -0.5832
vn -0.8025 -0.1265 0.5832
vn 0.3086 0.0499 0.9499
vn 0.9877 0.1564 -0.0002
vn 0.3086 0.0479 -0.9500
vn -0.8025 -0.1277 -0.5829
vn -0.7239 -0.3682 0.5834
vn 0.2784 0.1429 0.9498
vn 0.8910 0.4540 -0.0005
vn 0.2784 0.1409 -0.9501
vn -0.7239 -0.3695 -0.5826
vn -0.5745 -0.5739 0.5836
vn 0.2210 0.2220 0.9497
vn 0.7071 0.7071 -0.0007
vn 0.2210 0.2200 -0.9502
vn -0.5745 -0.5751 -0.5824
vn -0.3688 -0.7233 0.5838
vn 0.1419 0.2794 0.9496
vn 0.4540 0.8910 -0.0009
vn 0.1419 0.2774 -0.9502
vn -0.3688 -0.7245 -0.5823
vn -0.1271 -0.8018 0.5839
vn 0.0489 0.3096 0.9496
vn 0.1564 0.9877 -0.0010
vn 0.0489 0.3077 -0.9502
vn -0.1271 -0.8031 -0.5822
vn 0.1271 -0.8018 0.5839
vn -0.0489 0.3096 0.9496
vn -0.1564 0.9877 -0.0010
vn -0.0489 0.3077 -0.9502
vn 0.1271 -0.8031 -0.5822
vn 0.3688 -0.7233 0.5838
vn -0.1419 0.2794 0.9496
vn -0.4540 0.8910 -0.0009
vn -0.1419 0.2774 -0.9502
vn 0.3688 -0.7245 -0.5823
vn 0.5745 -0.5739 0.5836
vn -0.2210 0.2220 0.9497
vn -0.7071 0.7071 -0.0007
vn -0.2210 0.2200 -0.9502
vn 0.5745 -0.5751 -0.5824
vn 0.7239 -0.3682 0.5834
vn -0.2784 0.1429 0.9498
vn -0.8910 0.4540 -0.0005
vn -0.2784 0.1409 -0.9501
vn 0.7239 -0.3695 -0.5826
vn 0.8025 -0.1265 0.5832
vn -0.3086 0.0499 0.9499
vn -0.9877 0.1564 -0.0002
vn -0.3086 0.0479 -0.9500
vn 0.8025 -0.1277 -0.5829
vt 0.550000 0.600000
vt 0.600000 0.600000
vt 0.600000 0.800000
vt 0.550000 0.800000
vt 0.600000 1.000000
vt 0.550000 1.000000
vt 0.550000 0.000000
vt 0.600000 0.000000
vt 0.600000 0.200000
vt 0.550000 0.200000
vt 0.600000 0.400000
vt 0.550000 0.400000
vt 0.650000 0.600000
vt 0.650000 0.800000
vt 0.650000 1.000000
vt 0.650000 0.000000
vt 0.650000 0.200000
vt 0.650000 0.400000
vt 0.700000 0.600000
vt 0.700000 0.800000
vt 0.700000 1.000000
vt 0.700000 0.000000
vt 0.700000 0.200000
vt 0.700000 0.400000
vt 0.750000 0.600000
vt 0.750000 0.800000
vt 0.750000 1.000000
vt 0.750000 0.000000
vt 0.750000 0.200000
vt 0.750000 0.400000
vt 0.800000 0.600000
vt 0.800000 0.800000
vt 0.800000 1.000000
vt 0.800000 0.000000
vt 0.800000 0.200000
vt 0.800000 0.400000
vt 0.850000 0.600000
vt 0.850000 0.800000
vt 0.850000 1.000000
vt 0.850000 0.000000
vt 0.850000 0.200000
vt 0.850000 0.400000
vt 0.900000 0.600000
vt 0.900000 0.800000
vt 0.900000 1.000000
vt 0.900000 0.000000
vt 0.900000 0.200000
vt 0.900000 0.400000
vt 0.950000 0.600000
vt 0.950000 0.800000
vt 0.950000 1.000000
vt 0.950000 0.000000
vt 0.950000 0.200000
vt 0.950000 0.400000
vt 1.000000 0.600000
vt 1.000000 0.800000
vt 1.000000 1.000000
vt 1.000000 0.000000
vt 1.000000 0.200000
vt 1.000000 0.400000
vt 0.000000 0.600000
vt 0.050000 0.600000
vt 0.050000 0.800000
vt 0.000000 0.800000
vt 0.050000 1.000000
vt 0.000000 1.000000
vt 0.000000 0.000000
vt 0.050000 0.000000
vt 0.050000 0.200000
vt 0.000000 0.200000
vt 0.050000 0.400000
vt 0.000000 0.400000
vt 0.100000 0.600000
vt 0.100000 0.800000
vt 0.100000 1.000000
vt 0.100000 0.000000
vt 0.100000 0.200000
vt 0.100000 0.400000
vt 0.150000 0.600000
vt 0.150000 0.800000
vt 0.150000 1.000000
vt 0.150000 0.000000
vt 0.150000 0.200000
vt 0.150000 0.400000
vt 0.200000 0.600000
vt 0.200000 0.800000
vt 0.200000 1.000000
vt 0.200000 0.000000
vt 0.200000 0.200000
vt 0.200000 0.400000
vt 0.250000 0.600000
vt 0.250000 0.800000
vt 0.250000 1.000000
vt 0.250000 0.000000
vt 0.250000 0.200000
vt 0.250000 0.400000
vt 0.300000 0.600000
vt 0.300000 0.800000
vt 0.300000 1.000000
vt 0.300000 0.000000
vt 0.300000 0.200000
vt 0.300000 0.400000
vt 0.350000 0.600000
vt 0.350000 0.800000
vt 0.350000 1.000000
vt 0.350000 0.000000
vt 0.350000 0.200000
vt 0.350000 0.400000
vt 0.400000 0.600000
vt 0.400000 0.800000
vt 0.400000 1.000000
vt 0.400000 0.000000
vt 0.400000 0.200000
vt 0.400000 0.400000
vt 0.450000 0.600000
vt 0.450000 0.800000
vt 0.450000 1.000000
vt 0.450000 0.000000
vt 0.450000 0.200000
vt 0.450000 0.400000
vt 0.500000 0.600000
vt 0.500000 0.800000
vt 0.500000 1.000000
vt 0.500000 0.000000
vt 0.500000 0.200000
vt 0.500000 0.400000
s 0
usemtl Material.001
f 1/1/1 6/2/1 7/3/1 2/4/1
f 2/4/2 7/3/2 8/5/2 3/6/2
f 3/7/3 8/8/3 9/9/3 4/10/3
f 4/10/4 9/9/4 10/11/4 5/12/4
f 5/12/5 10/11/5 6/2/5 1/1/5
f 6/2/6 11/13/6 12/14/6 7/3/6
f 7/3/7 12/14/7 13/15/7 8/5/7
f 8/8/8 13/16/8 14/17/8 9/9/8
f 9/9/9 14/17/9 15/18/9 10/11/9
f 10/11/10 15/18/10 11/13/10 6/2/10
f 11/13/11 16/19/11 17/20/11 12/14/11
f 12/14/12 17/20/12 18/21/12 13/15/12
f 13/16/13 18/22/13 19/23/13 14/17/13
f 14/17/14 19/23/14 20/24/14 15/18/14
f 15/18/15 20/24/15 16/19/15 11/13/15
f 16/19/16 21/25/16 22/26/16 17/20/16
f 17/20/17 22/26/17 23/27/17 18/21/17
f 18/22/18 23/28/18 24/29/18 19/23/18
f 19/23/19 24/29/19 25/30/19 20/24/19
f 20/24/20 25/30/20 21/25/20 16/19/20
f 21/25/21 26/31/21 27/32/21 22/26/21
f 22/26/22 27/32/22 28/33/22 23/27/22
f 23/28/23 28/34/23 29/35/23 24/29/23
f 24/29/24 29/35/24 30/36/24 25/30/24
f 25/30/25 30/36/25 26/31/25 21/25/25
f 26/31/26 31/37/26 32/38/26 27/32/26
f 27/32/27 32/38/27 33/39/27 28/33/27
f 28/34/28 33/40/28 34/41/28 29/35/28
f 29/35/29 34/41/29 35/42/29 30/36/29
f 30/36/30 35/42/30 31/37/30 26/31/30
f 31/37/31 36/43/31 37/44/31 32/38/31
f 32/38/32 37/44/32 38/45/32 33/39/32
f 33/40/33 38/46/33 39/47/33 34/41/33
f 34/41/34 39/47/34 40/48/34 35/42/34
f 35/42/35 40/48/35 36/43/35 31/37/35
f 36/43/36 41/49/36 42/50/36 37/44/36
f 37/44/37 42/50/37 43/51/37 38/45/37
f 38/46/38 43/52/38 44/53/38 39/47/38
f 39/47/39 44/53/39 45/54/39 40/48/39
f 40/48/40 45/54/40 41/49/40 36/43/40
f 41/49/41 46/55/41 47/56/41 42/50/41
f 42/50/42 47/56/42 48/57/42 43/51/42
f 43/52/43 48/58/43 49/59/43 44/53/43
f 44/53/44 49/59/44 50/60/44 45/54/44
f 45/54/45 50/60/45 46/55/45 41/49/45
f 46/61/46 51/62/46 52/63/46 47/64/46
f 47/64/47 52/63/47 53/65/47 48/66/47
f 48/67/48 53/68/48 54/69/48 49/70/48
f 49/70/49 54/69/49 55/71/49 50/72/49
f 50/72/50 55/71/50 51/62/50 46/61/50
f 51/62/51 56/73/51 57/74/51 52/63/51
f 52/63/52 57/74/52 58/75/52 53/65/52
f 53/68/53 58/76/53 59/77/53 54/69/53
f 54/69/54 59/77/54 60/78/54 55/71/54
f 55/71/55 60/78/55 56/73/55 51/62/55
f 56/73/56 61/79/56 62/80/56 57/74/56
f 57/74/57 62/80/57 63/81/57 58/75/57
f 58/76/58 63/82/58 64/83/58 59/77/58
f 59/77/59 64/83/59 65/84/59 60/78/59
f 60/78/60 65/84/60 61/79/60 56/73/60
f 61/79/61 66/85/61 67/86/61 62/80/61
f 62/80/62 67/86/62 68/87/62 63/81/62
f 63/82/63 68/88/63 69/89/63 64/83/63
f 64/83/64 69/89/64 70/90/64 65/84/64
f 65/84/65 70/90/65 66/85/65 61/79/65
f 66/85/66 71/91/66 72/92/66 67/86/66
f 67/86/67 72/92/67 73/93/67 68/87/67
f 68/88/68 73/94/68 74/95/68 69/89/68
f 69/89/69 74/95/69 75/96/69 70/90/69
f 70/90/70 75/96/70 71/91/70 66/85/70
f 71/91/71 76/97/71 77/98/71 72/92/71
f 72/92/72 77/98/72 78/99/72 73/93/72
f 73/94/73 78/100/73 79/101/73 74/95/73
f 74/95/74 79/101/74 80/102/74 75/96/74
f 75/96/75 80/102/75 76/97/75 71/91/75
f 76/97/76 81/103/76 82/104/76 77/98/76
f 77/98/77 82/104/77 83/105/77 78/99/77
f 78/100/78 83/106/78 84/107/78 79/101/78
f 79/101/79 84/107/79 85/108/79 80/102/79
f 80/102/80 85/108/80 81/103/80 76/97/80
f 81/103/81 86/109/81 87/110/81 82/104/81
f 82/104/82 87/110/82 88/111/82 83/105/82
f 83/106/83 88/112/83 89/113/83 84/107/83
f 84/107/84 89/113/84 90/114/84 85/108/84
f 85/108/85 90/114/85 86/109/85 81/103/85
f 86/109/86 91/115/86 92/116/86 87/110/86
f 87/110/87 92/116/87 93/117/87 88/111/87
f 88/112/88 93/118/88 94/119/88 89/113/88
f 89/113/89 94/119/89 95/120/89 90/114/89
f 90/114/90 95/120/90 91/115/90 86/109/90
f 91/115/91 96/121/91 97/122/91 92/116/91
f 92/116/92 97/122/92 98/123/92 93/117/92
f 93/118/93 98/124/93 99/125/93 94/119/93
f 94/119/94 99/125/94 100/126/94 95/120/94
f 95/120/95 100/126/95 96/121/95 91/115/95
f 96/121/96 1/1/96 2/4/96 97/122/96
f 97/122/97 2/4/97 3/6/97 98/123/97
f 98/124/98 3/7/98 4/10/98 99/125/98
f 99/125/99 4/10/99 5/12/99 100/126/99
f 100/126/100 5/12/100 1/1/100 96/121/100
